PathFileType	4	(X/Y/Z)	C:\Users\Biomechanik\SynologyDrive\AlexP\Athlete_03\Athlete_3_25_03_31\Squat_bw_03\marker_experimental.trc
DataRate	CameraRate	NumFrames	NumMarkers	Units	OrigDataRate	OrigDataStartFrame	OrigNumFrames
200.000000	200.000000	4	55	mm	200.000000	340	544
Frame#	Time	BL			BR			GLAB			RFHD			LFHD			C7			T6			SPINMOL			SPINM2			SPINM3			T12			BELTOL			BELT2			BELT3			SACROL			SACR2			SACR3			LTHOL			LTH2			LTH3			LSHAOL			LSHA2			LSHA3			LHEE			LTOE			LM5			RTHOL			RTH2			RTH3			RSHAOL			RSHA2			RSHA3			RHEE			RTOE			RM5			STRN			XIPH			LACR			LUAOL			LUA2			LUA3			LLAOL			LLA2			LLA3			LWRR			LWRU			RACR			RUAOL			RUA2			RUA3			RLAOL			RLA2			RLA3			RWRR			RWRU			
		X1	Y1	Z1	X2	Y2	Z2	X3	Y3	Z3	X4	Y4	Z4	X5	Y5	Z5	X6	Y6	Z6	X7	Y7	Z7	X8	Y8	Z8	X9	Y9	Z9	X10	Y10	Z10	X11	Y11	Z11	X12	Y12	Z12	X13	Y13	Z13	X14	Y14	Z14	X15	Y15	Z15	X16	Y16	Z16	X17	Y17	Z17	X18	Y18	Z18	X19	Y19	Z19	X20	Y20	Z20	X21	Y21	Z21	X22	Y22	Z22	X23	Y23	Z23	X24	Y24	Z24	X25	Y25	Z25	X26	Y26	Z26	X27	Y27	Z27	X28	Y28	Z28	X29	Y29	Z29	X30	Y30	Z30	X31	Y31	Z31	X32	Y32	Z32	X33	Y33	Z33	X34	Y34	Z34	X35	Y35	Z35	X36	Y36	Z36	X37	Y37	Z37	X38	Y38	Z38	X39	Y39	Z39	X40	Y40	Z40	X41	Y41	Z41	X42	Y42	Z42	X43	Y43	Z43	X44	Y44	Z44	X45	Y45	Z45	X46	Y46	Z46	X47	Y47	Z47	X48	Y48	Z48	X49	Y49	Z49	X50	Y50	Z50	X51	Y51	Z51	X52	Y52	Z52	X53	Y53	Z53	X54	Y54	Z54	X55	Y55	Z55	

341	1.7	960.7123413085938	36.2041702270509	-1933.532470703125	1063.1826171875	32.89184951782226	86.64975738525391	574.8878173828125	911.8308715820314	-1197.183715820312	527.620849609375	942.4951782226564	-1133.67138671875	534.8011474609375	939.9552001953126	-1270.265991210938	311.638916015625	829.0575561523439	-1204.63037109375	179.7772674560547	736.4542236328126	-1213.282348632812	157.6912384033203	714.3002319335939	-1236.170166015625	147.3899383544922	708.2270507812501	-1187.728759765625	114.2771911621094	665.4426269531251	-1225.490600585938	77.78610229492188	619.9180297851564	-1225.3896484375	42.92985153198242	611.7606811523439	-1240.638671875	41.99947357177734	607.3552246093751	-1190.316284179688	6.926131725311279	559.1277465820314	-1221.207275390625	-45.48770904541016	423.2465209960938	-1247.072143554688	-43.79956436157227	422.0349426269532	-1195.862670898438	-45.95043182373047	361.2553710937501	-1222.364379882812	160.4261932373047	350.7953186035157	-1516.88671875	216.2740325927734	304.9449157714845	-1549.363403320312	210.3857269287109	355.0150146484376	-1552.259033203125	249.7347106933594	290.1111755371095	-1625.91796875	188.8554382324219	254.9845733642579	-1587.976684570312	229.3807067871094	234.0318145751954	-1609.613647460938	118.9427490234375	72.38257598876962	-1467.068115234375	320.7122497558594	47.91589736938486	-1545.765380859375	239.1695251464844	28.106451034546	-1625.880249023438	144.6190338134766	336.8522033691407	-920.3046264648438	174.9890594482422	402.8597412109376	-886.3704833984375	190.7249145507812	355.6681518554688	-882.7598876953125	228.1999206542969	304.5210876464844	-805.63818359375	227.5347290039062	225.6040954589844	-806.673583984375	197.8233184814453	256.7468261718751	-831.6930541992188	101.8020172119141	66.6712265014649	-972.5953979492188	287.9493713378906	45.15884399414068	-880.3931884765625	202.4422454833984	41.14132308959966	-804.4280395507812	424.4563598632812	662.9368286132814	-1211.867431640625	368.7740173339844	528.8303222656251	-1209.608642578125	362.8843994140625	779.4460449218751	-1369.878295898438	264.7811889648438	711.8403930664064	-1493.500610351562	211.7801513671875	678.8681030273439	-1514.218017578125	253.7337951660156	669.8696899414064	-1542.656982421875	269.7178344726562	612.1300659179689	-1633.3447265625	342.1611938476562	580.2683715820314	-1636.235473632812	328.9943542480469	628.4682006835939	-1628.6044921875	420.5636596679688	675.5677490234376	-1616.106079101562	411.47265625	673.1521606445314	-1538.436645507812	361.9844360351562	780.8620605468751	-1062.435180664062	269.0710144042969	714.6558837890626	-942.5735473632812	249.1528778076172	679.7545166015625	-890.5712890625	217.0198364257812	676.0257568359376	-931.2611083984375	286.0083312988281	638.8120727539062	-785.13232421875	311.7532958984375	712.207763671875	-803.176513671875	339.0465087890625	671.4361572265625	-791.697998046875	401.4576721191406	738.9248046875	-814.6483764648438	401.1212463378906	727.2066650390625	-892.3301391601562	
342	1.705	960.712158203125	36.20449447631848	-1933.532592773438	1063.182739257812	32.89168548583984	86.65017700195312	574.6724853515625	912.2842407226564	-1197.243774414062	527.3883056640625	942.9325561523439	-1133.747436523438	534.5516967773438	940.3699340820314	-1270.318481445312	311.5103454589844	829.3984375000001	-1204.620971679688	179.6720733642578	736.7873535156251	-1213.272216796875	157.5633392333984	714.6461791992189	-1236.16064453125	147.2630462646484	708.5892333984376	-1187.717407226562	114.1514587402344	665.7786865234376	-1225.471069335938	77.76109313964844	620.2786865234376	-1225.35205078125	42.88913345336914	612.1486816406251	-1240.607543945312	41.96247100830078	607.7568969726564	-1190.28515625	6.856986522674561	559.5442504882814	-1221.18212890625	-45.66807174682617	423.7102966308594	-1247.075927734375	-43.98780822753906	422.4912414550782	-1195.857177734375	-46.19477081298828	361.7258300781251	-1222.380859375	160.2505798339844	351.0140380859376	-1516.884033203125	215.9957580566406	305.0713500976564	-1549.41162109375	210.2032928466797	355.1524963378907	-1552.280883789062	249.5387420654297	290.1234436035157	-1625.998046875	188.6930847167969	254.9660034179688	-1588.028686523438	229.2239532470703	234.0323486328126	-1609.677978515625	118.9279098510742	72.3761520385743	-1467.0771484375	320.6934204101562	47.93912887573251	-1545.798461914062	239.1543579101562	28.07609748840342	-1625.908203125	144.4486541748047	337.0311279296876	-920.3271484375	174.8469390869141	402.9941406250001	-886.3418579101562	190.5777130126953	355.7982482910157	-882.7911376953125	228.0524597167969	304.5539855957032	-805.6171875	227.4173431396484	225.6367797851563	-806.6490478515625	197.6898803710938	256.7703552246094	-831.6752319335938	101.7770462036133	66.65165710449224	-972.5728149414062	287.9605102539062	45.1792945861817	-880.36865234375	202.42626953125	41.11786651611333	-804.4176025390625	424.2915954589844	663.2402954101564	-1211.853393554688	368.6241149902344	529.1213989257814	-1209.596069335938	362.7491455078125	779.7297973632814	-1369.896606445312	264.6099853515625	712.0794067382814	-1493.45556640625	211.5853576660156	679.1276855468751	-1514.15283203125	253.5482177734375	670.0914916992189	-1542.583251953125	269.4563293457031	612.3243408203126	-1633.271484375	341.8910217285156	580.4377441406251	-1636.184692382812	328.7394104003906	628.6431884765626	-1628.559936523438	420.3211364746094	675.7296752929689	-1616.126708984375	411.2801818847656	673.3173217773439	-1538.451782226562	361.840087890625	781.2070312500001	-1062.39990234375	268.9015502929688	714.9720458984376	-942.5812377929688	249.0026550292969	680.0294799804688	-890.597412109375	216.8497314453125	676.3355712890626	-931.2867431640625	285.8040466308594	639.1085205078125	-785.1514282226562	311.5374145507812	712.5067749023438	-803.1717529296875	338.8338928222656	671.7508544921875	-791.6840209960938	401.2424011230469	739.2482299804688	-814.621826171875	400.9289245605469	727.5349731445312	-892.30517578125	
343	1.71	960.7118530273438	36.20508956909192	-1933.533081054688	1063.182861328125	32.89157104492187	86.65055084228516	574.4630737304688	912.7752075195314	-1197.3046875	527.165283203125	943.4075927734376	-1133.820068359375	534.3045654296875	940.8212280273439	-1270.3681640625	311.3886108398438	829.7752685546876	-1204.606323242188	179.5738830566406	737.1562500000001	-1213.257934570312	157.4413909912109	715.0307617187501	-1236.146850585938	147.1426849365234	708.9886474609376	-1187.698364257812	114.0287246704102	666.1551513671876	-1225.4482421875	77.75149536132812	620.6842041015626	-1225.311401367188	42.86295700073242	612.5822753906251	-1240.575317382812	41.93838500976562	608.2060546875001	-1190.248901367188	6.796102046966553	560.0109863281251	-1221.156127929688	-45.85787200927734	424.2353515625001	-1247.077514648438	-44.18615341186523	423.0075378417969	-1195.849853515625	-46.45819473266602	362.2586669921876	-1222.397338867188	160.0626525878906	351.2550659179689	-1516.882690429688	215.6950531005859	305.2117309570314	-1549.46337890625	210.0083770751953	355.3049316406251	-1552.30419921875	249.3312225341797	290.1347656250001	-1626.082641601562	188.5214385986328	254.9435424804688	-1588.085083007812	229.0583648681641	234.0309600830079	-1609.746704101562	118.9112396240234	72.36625671386727	-1467.088134765625	320.6728210449219	47.96401596069345	-1545.83349609375	239.1380615234375	28.04356384277354	-1625.93798828125	144.2576599121094	337.2338562011719	-920.3494262695312	174.6915740966797	403.1478271484376	-886.3071899414062	190.4125366210938	355.9452514648438	-882.8201293945312	227.8864898681641	304.5888977050782	-805.588134765625	227.2854156494141	225.6713409423829	-806.6171264648438	197.5390014648438	256.7960815429688	-831.6507568359375	101.7473526000977	66.62979125976568	-972.5454711914062	287.9716186523438	45.20254516601568	-880.3391723632812	202.4066162109375	41.09083557128911	-804.4034423828125	424.1256713867188	663.5736694335939	-1211.835205078125	368.4715270996094	529.4439086914064	-1209.579223632812	362.6200256347656	780.0496826171876	-1369.909423828125	264.4421997070312	712.3529052734376	-1493.402465820312	211.3943939208984	679.4211425781251	-1514.0771484375	253.3690948486328	670.3447875976564	-1542.499877929688	269.1961059570312	612.5514526367189	-1633.18896484375	341.6216430664062	580.6397705078126	-1636.126831054688	328.4854736328125	628.8508300781251	-1628.5087890625	420.0802307128906	675.9243774414064	-1616.144653320312	411.0922241210938	673.5154418945314	-1538.4638671875	361.7004089355469	781.5846557617189	-1062.362670898438	268.7326965332031	715.3229980468751	-942.587158203125	248.8545227050781	680.33935546875	-890.62060546875	216.6811676025391	676.6805419921876	-931.3093872070312	285.5985717773438	639.446533203125	-785.1649780273438	311.3210144042969	712.8436889648438	-803.1637573242188	338.6212463378906	672.10546875	-791.666748046875	401.0274353027344	739.611328125	-814.5918579101562	400.7383422851562	727.89990234375	-892.27685546875	
344	1.715	960.7115478515625	36.20588684082043	-1933.533813476562	1063.182861328125	32.89154815673827	86.65084838867188	574.26025390625	913.3072509765626	-1197.366333007812	526.953125	943.9241333007814	-1133.887817382812	534.0608520507812	941.3128662109376	-1270.415649414062	311.2742309570312	830.1912841796876	-1204.586181640625	179.4827575683594	737.5639648437501	-1213.238891601562	157.3261871337891	715.4568481445314	-1236.128295898438	147.0296783447266	709.4278564453126	-1187.671875	113.9096221923828	666.5754394531251	-1225.421630859375	77.75831604003906	621.1378784179689	-1225.267333984375	42.85317993164062	613.0650634765626	-1240.540893554688	41.92812728881836	608.7056274414064	-1190.207275390625	6.744669914245605	560.5312500000001	-1221.128662109375	-46.0571403503418	424.8255920410157	-1247.07666015625	-44.39470672607422	423.5875854492188	-1195.8408203125	-46.74070739746094	362.8574218750001	-1222.413696289062	159.8621063232422	351.5198364257814	-1516.883544921875	215.3712463378906	305.3672180175782	-1549.518920898438	209.8005523681641	355.4733886718751	-1552.329467773438	249.1119842529297	290.1450805664064	-1626.172485351562	188.3401336669922	254.9169006347657	-1588.147094726562	228.8840026855469	234.027572631836	-1609.820434570312	118.8922805786133	72.35265350341805	-1467.101928710938	320.6503601074219	47.99075698852548	-1545.870971679688	239.12060546875	28.00855445861826	-1625.970092773438	144.0451354980469	337.4617004394532	-920.3712158203125	174.5223236083984	403.3217468261719	-886.26611328125	190.2284545898438	356.1100158691407	-882.8466186523438	227.7012634277344	304.6259765625001	-805.550537109375	227.13818359375	225.7080078125001	-806.5774536132812	197.3698120117188	256.8241577148438	-831.6193237304688	101.7124099731445	66.60549926757818	-972.5127563476562	287.982421875	45.22874450683599	-880.3043212890625	202.3829650878906	41.06008911132817	-804.3849487304688	423.9587707519531	663.9393920898439	-1211.812744140625	368.3157958984375	529.8007202148439	-1209.557495117188	362.4972839355469	780.4088134765626	-1369.916625976562	264.277099609375	712.6645507812501	-1493.341186523438	211.2064514160156	679.7528076171876	-1513.991455078125	253.1956024169922	670.6334228515626	-1542.406127929688	268.9369506835938	612.8142089843751	-1633.095947265625	341.3528137207031	580.8781738281251	-1636.061767578125	328.2324523925781	629.0947265625001	-1628.451049804688	419.8406677246094	676.1556396484376	-1616.15966796875	410.9086608886719	673.7500610351564	-1538.472778320312	361.5667114257812	781.9956054687501	-1062.325439453125	268.5647888183594	715.7107543945314	-942.5913696289062	248.7077331542969	680.6868896484375	-890.6409912109375	216.5143585205078	677.0627441406251	-931.3295288085938	285.3918151855469	639.8275146484375	-785.1734008789062	311.1041870117188	713.2202758789062	-803.1530151367188	338.408447265625	672.5011596679688	-791.6463623046875	400.8128967285156	740.0151977539062	-814.5584106445312	400.5495300292969	728.3033447265625	-892.2449340820312	
